<svg width="43" height="52" viewBox="0 0 43 52" fill="none" xmlns="http://www.w3.org/2000/svg">
<g id="Group 21">
<path id="Combined Shape" fill-rule="evenodd" clip-rule="evenodd" d="M21.7825 35.5083C17.059 35.5083 12.6183 33.6689 9.27853 30.3289C5.93844 26.9891 4.09912 22.5484 4.09912 17.8249C4.09912 13.1015 5.93844 8.66077 9.27853 5.32101C12.6183 1.98092 17.0593 0.141602 21.7825 0.141602C26.5059 0.141602 30.9466 1.98092 34.2867 5.32101C37.6265 8.66077 39.4658 13.1015 39.4658 17.8249C39.4658 22.5484 37.6265 26.9891 34.2867 30.3289C30.9466 33.6689 26.5059 35.5083 21.7825 35.5083ZM28.4785 13.6945H26.9777C26.8489 13.6945 26.7462 13.5927 26.7387 13.464C26.6939 12.7165 26.4789 11.9878 26.1054 11.3257C24.7603 8.94219 21.726 8.09744 19.3425 9.44288C16.959 10.7877 16.1146 13.8216 17.4594 16.2054C18.1534 17.4335 19.347 18.3094 20.7145 18.6126C20.8258 18.6372 20.9065 18.7332 20.9065 18.847V20.3744C20.9065 20.5245 20.7703 20.6354 20.6221 20.6101C18.572 20.2605 16.7629 18.9959 15.7368 17.1776C13.855 13.844 15.0367 9.60113 18.37 7.71965C21.7039 5.83785 25.9468 7.01953 27.8283 10.3535C28.3679 11.3101 28.6704 12.3656 28.7187 13.4477C28.7249 13.5826 28.6137 13.6945 28.4785 13.6945ZM16.8253 22.1652C16.8182 22.0361 16.7154 21.9336 16.5863 21.9336H15.0859C14.951 21.9336 14.8398 22.0449 14.8453 22.1798C14.8904 23.2694 15.1936 24.3333 15.7367 25.2968C17.0115 27.555 19.3693 28.8256 21.7946 28.8256C22.949 28.8256 24.1194 28.5373 25.195 27.9306C28.5283 26.0488 29.71 21.8059 27.8285 18.4723C26.7966 16.6437 24.9722 15.3754 22.9075 15.0339C22.76 15.0093 22.6244 15.1202 22.6244 15.2697V16.7957C22.6244 16.9102 22.7062 17.0062 22.818 17.0302C24.1995 17.3269 25.4064 18.2064 26.1056 19.4448C27.4504 21.8283 26.6063 24.8622 24.2225 26.2073C21.8384 27.5525 18.8051 26.7077 17.4596 24.3242C17.0822 23.6559 16.8672 22.9201 16.8253 22.1652Z" fill="#BDBDBD"/>
<g id="Group 1965">
<path id="Fill 7" fill-rule="evenodd" clip-rule="evenodd" d="M29.868 41.1125L29.8663 51.5203C29.8663 51.6533 29.7583 51.7609 29.6254 51.7609H28.4791C28.3464 51.7609 28.2388 51.6533 28.2388 51.5203L28.2404 41.1125C28.2404 40.9796 28.3481 40.8716 28.481 40.8716H29.6273C29.7603 40.8716 29.868 40.9796 29.868 41.1125Z" fill="#BDBDBD"/>
<path id="Fill 9" fill-rule="evenodd" clip-rule="evenodd" d="M23.7366 41.0926L23.735 51.5153C23.735 51.6486 23.6273 51.7565 23.4944 51.7565H22.348C22.2151 51.7565 22.1074 51.6486 22.1074 51.5153L22.109 41.0926C22.109 40.9593 22.2167 40.8513 22.3497 40.8513H23.496C23.6289 40.8513 23.7366 40.9593 23.7366 41.0926Z" fill="#BDBDBD"/>
<path id="Fill 11" fill-rule="evenodd" clip-rule="evenodd" d="M7.26258 42.6124L6.28553 43.1913C6.19797 43.2431 6.08415 43.2152 6.03032 43.129C5.82116 42.795 5.62108 42.5722 5.42943 42.4603C5.19984 42.3134 4.90377 42.2401 4.5409 42.2401C4.09566 42.2401 3.72631 42.3663 3.43251 42.6189C3.13871 42.8666 2.99181 43.1789 2.99181 43.5551C2.99181 44.0739 3.37738 44.4916 4.14852 44.8081L5.20892 45.242C6.07183 45.5909 6.7032 46.0167 7.10239 46.5193C7.5019 47.022 7.70166 47.6381 7.70166 48.3681C7.70166 49.3458 7.37543 50.1536 6.72363 50.7917C6.06729 51.4345 5.25237 51.7555 4.27953 51.7555C3.35695 51.7555 2.59457 51.4825 1.99335 50.936C1.43721 50.423 1.07726 49.7132 0.913822 48.8068C0.896635 48.7099 0.963761 48.6122 1.06007 48.5912L2.30952 48.3155C2.41621 48.2922 2.52031 48.3645 2.53652 48.4725C2.6124 48.9894 2.73239 49.3539 2.8955 49.566C3.22594 50.0251 3.70815 50.2544 4.34147 50.2544C4.84183 50.2544 5.25723 50.0871 5.58768 49.7521C5.91812 49.4168 6.0835 48.9923 6.0835 48.478C6.0835 48.2718 6.05464 48.0824 5.99724 47.9102C5.93984 47.738 5.85034 47.5794 5.72874 47.4351C5.60713 47.2905 5.44986 47.1549 5.25723 47.0288C5.06429 46.9026 4.8347 46.782 4.56846 46.6672L3.54276 46.2405C2.08772 45.6253 1.36003 44.7257 1.36003 43.5411C1.36003 42.7428 1.66518 42.0748 2.2758 41.5377C2.8861 40.9962 3.64588 40.7251 4.55484 40.7251C5.72322 40.7251 6.64775 41.2676 7.32809 42.3523C7.38354 42.4409 7.35241 42.5589 7.26258 42.6124Z" fill="#BDBDBD"/>
<path id="Fill 14" fill-rule="evenodd" clip-rule="evenodd" d="M12.4501 47.2402L12.4485 51.5165C12.4485 51.6491 12.3408 51.7564 12.2079 51.7564H11.0489C10.9163 51.7564 10.8086 51.6491 10.8086 51.5165L10.8099 41.1223C10.8099 40.9897 10.9176 40.8823 11.0508 40.8823H12.2643C12.3668 40.8823 12.4501 40.9653 12.4501 41.0681V45.2098V47.2402Z" fill="#BDBDBD"/>
<path id="Fill 16" fill-rule="evenodd" clip-rule="evenodd" d="M19.0855 51.7502C19.1326 51.7502 19.1604 51.698 19.1345 51.6591L16.1845 47.2336L15.6546 46.4148C15.6125 46.3519 15.6125 46.2699 15.6546 46.207L19.1001 41.0606C19.1543 40.9799 19.0966 40.8716 18.9993 40.8716H17.3448C17.2767 40.8716 17.2135 40.905 17.1752 40.9614L14.5362 44.8664L13.6392 46.1943C13.5968 46.2576 13.5968 46.3399 13.6396 46.4028L14.5476 47.7369L17.2141 51.6429C17.2579 51.7077 17.3299 51.7463 17.4074 51.7466L19.0855 51.7502Z" fill="#BDBDBD"/>
<path id="Fill 18" fill-rule="evenodd" clip-rule="evenodd" d="M42.2139 51.7383L42.2577 51.7564C42.2667 51.7603 42.2758 51.7629 42.2849 51.7642C42.2862 51.7652 42.2875 51.7652 42.2901 51.7652C42.3971 51.7833 42.5171 51.7435 42.5868 51.6637C42.5907 51.6582 42.5946 51.6546 42.5972 51.6494C42.6293 51.6092 42.6474 51.5628 42.6474 51.5113V51.4879V51.4853V51.4827L42.6539 41.1028C42.6539 40.9712 42.5469 40.8625 42.414 40.8625H41.1934C41.0601 40.8625 40.9531 40.9699 40.9531 41.1015V47.7383C40.9531 47.9046 40.8629 47.9409 40.7468 47.8197L34.282 40.9199C34.1659 40.8 33.9619 40.8814 33.9619 41.0477L33.9648 42.96C33.9648 43.0219 33.9892 43.0813 34.0316 43.1251L42.1234 51.6621C42.1377 51.6802 42.1545 51.6971 42.1737 51.7123L42.2139 51.7383ZM35.5401 46.9708C35.5852 47.0159 35.6102 47.0765 35.6102 47.1398L35.6082 51.5617C35.6082 51.6638 35.5252 51.7462 35.4227 51.7462H34.1487C34.0462 51.7462 33.9632 51.6638 33.9632 51.5617L33.9651 45.8196L33.9635 45.7142C33.9632 45.7032 33.9641 45.6922 33.9661 45.6818C33.9888 45.5641 34.1454 45.531 34.2287 45.6173L35.5401 46.9708Z" fill="#BDBDBD"/>
</g>
</g>
</svg>
