<svg width="119" height="32" viewBox="0 0 119 32" fill="none" xmlns="http://www.w3.org/2000/svg">
<path fill-rule="evenodd" clip-rule="evenodd" d="M82.5552 1.10535L82.5506 30.7766C82.5506 31.1556 82.2428 31.4625 81.8637 31.4625H78.5957C78.2176 31.4625 77.9106 31.1556 77.9106 30.7766L77.9153 1.10535C77.9153 0.726309 78.2222 0.418457 78.6012 0.418457H81.8693C82.2483 0.418457 82.5552 0.726309 82.5552 1.10535Z" fill="white"/>
<path fill-rule="evenodd" clip-rule="evenodd" d="M65.0743 1.04768L65.0697 30.7614C65.0697 31.1414 64.7627 31.4493 64.3837 31.4493H61.1157C60.7366 31.4493 60.4297 31.1414 60.4297 30.7614L60.4343 1.04768C60.4343 0.667716 60.7412 0.359863 61.1203 0.359863H64.3883C64.7674 0.359863 65.0743 0.667716 65.0743 1.04768Z" fill="white"/>
<path fill-rule="evenodd" clip-rule="evenodd" d="M18.1072 5.38048L15.3217 7.03068C15.0721 7.1786 14.7476 7.09909 14.5941 6.85318C13.9978 5.90097 13.4274 5.26585 12.8811 4.9469C12.2265 4.52811 11.3825 4.31918 10.348 4.31918C9.07868 4.31918 8.02569 4.6788 7.18811 5.39897C6.35053 6.10528 5.93174 6.99555 5.93174 8.06795C5.93174 9.54712 7.03095 10.7379 9.22937 11.6401L12.2524 12.8771C14.7125 13.8718 16.5124 15.0857 17.6505 16.5186C18.7894 17.9516 19.3589 19.7081 19.3589 21.7891C19.3589 24.5764 18.4289 26.8793 16.5707 28.6987C14.6995 30.531 12.3763 31.4462 9.60286 31.4462C6.97271 31.4462 4.79925 30.6678 3.08526 29.1101C1.49978 27.6475 0.473605 25.6239 0.00766629 23.0399C-0.0413312 22.7635 0.150036 22.4852 0.424607 22.4251L3.98663 21.6393C4.29079 21.5728 4.58755 21.7789 4.63377 22.0868C4.8501 23.5604 5.19216 24.5995 5.65717 25.2041C6.59922 26.5132 7.97392 27.1668 9.77944 27.1668C11.2059 27.1668 12.3902 26.6898 13.3322 25.7348C14.2743 24.7789 14.7457 23.5687 14.7457 22.1025C14.7457 21.5145 14.6635 20.9746 14.4998 20.4837C14.3362 19.9928 14.081 19.5408 13.7344 19.1294C13.3877 18.7171 12.9393 18.3306 12.3902 17.971C11.8401 17.6114 11.1856 17.2675 10.4266 16.9402L7.50244 15.7236C3.35429 13.9698 1.27975 11.4053 1.27975 8.0282C1.27975 5.75212 2.14969 3.84769 3.89049 2.31675C5.63036 0.772867 7.79642 0 10.3877 0C13.7186 0 16.3543 1.54666 18.2939 4.63905C18.452 4.89143 18.3632 5.22794 18.1072 5.38048Z" fill="white"/>
<path fill-rule="evenodd" clip-rule="evenodd" d="M32.896 18.5744L32.8914 30.7655C32.8914 31.1436 32.5845 31.4496 32.2054 31.4496H28.9013C28.5232 31.4496 28.2163 31.1436 28.2163 30.7655L28.22 1.13309C28.22 0.754978 28.5269 0.448975 28.9069 0.448975H32.3663C32.6584 0.448975 32.896 0.685642 32.896 0.978702V12.7862V18.5744Z" fill="white"/>
<path fill-rule="evenodd" clip-rule="evenodd" d="M51.8127 31.432C51.9467 31.432 52.0263 31.2832 51.9523 31.1723L43.5423 18.5559L42.0317 16.2215C41.9115 16.0422 41.9115 15.8083 42.0317 15.629L51.8543 0.95743C52.0087 0.727234 51.8441 0.418457 51.5668 0.418457H46.8501C46.6559 0.418457 46.4757 0.513679 46.3666 0.674538L38.8431 11.8071L36.286 15.5929C36.1649 15.7732 36.1649 16.008 36.287 16.1873L38.8755 19.9907L46.4775 31.126C46.6023 31.3109 46.8076 31.4209 47.0285 31.4219L51.8127 31.432Z" fill="white"/>
<path fill-rule="evenodd" clip-rule="evenodd" d="M117.745 31.3944L117.87 31.4462C117.896 31.4573 117.922 31.4647 117.948 31.4684C117.952 31.4712 117.955 31.4711 117.963 31.4711C118.268 31.5229 118.61 31.4092 118.809 31.1818C118.82 31.1661 118.831 31.1559 118.838 31.1411C118.93 31.0265 118.982 30.8943 118.982 30.7473V30.6807V30.6733V30.6659L119 1.0742C119 0.698861 118.695 0.38916 118.316 0.38916H114.836C114.456 0.38916 114.151 0.695164 114.151 1.0705V19.9909C114.151 20.4652 113.894 20.5687 113.563 20.223L95.1327 0.552793C94.8017 0.210735 94.2202 0.44278 94.2202 0.917039L94.2285 6.36871C94.2285 6.54528 94.2979 6.71446 94.419 6.83927L117.488 31.1772C117.528 31.2289 117.576 31.277 117.631 31.3205L117.745 31.3944ZM98.7207 17.7999C98.8492 17.9284 98.9204 18.1013 98.9204 18.2815L98.9149 30.8878C98.9149 31.179 98.6782 31.4138 98.3861 31.4138H94.7538C94.4616 31.4138 94.225 31.179 94.225 30.8878L94.2305 14.518L94.2259 14.2175C94.225 14.1861 94.2277 14.1547 94.2333 14.1251C94.298 13.7895 94.7445 13.6952 94.9821 13.9411L98.7207 17.7999Z" fill="white"/>
</svg>
